<svg width="100" height="100" viewBox="0 0 100 100" fill="none" xmlns="http://www.w3.org/2000/svg">
<mask id="mask0_10693_5646" style="mask-type:alpha" maskUnits="userSpaceOnUse" x="0" y="0" width="100" height="100">
<rect width="100" height="100" fill="#D9D9D9"/>
</mask>
<g mask="url(#mask0_10693_5646)">
<path d="M74.631 65.5304C77.5647 57.0895 71.2494 48.2972 62.3165 48.4377L58.8558 48.4904C58.8295 48.4904 58.8119 48.4904 58.7855 48.4904L50.1601 48.6309L41.5347 48.4904C41.5084 48.4904 41.4908 48.4904 41.4645 48.4904L38.0038 48.4377C29.0709 48.2972 22.7556 57.0895 25.6893 65.5304C26.6467 68.2884 27.6744 70.8532 28.7459 73.2335C29.3257 74.6301 30.0723 76.1672 30.9067 77.7571C34.5431 84.8893 38.3815 90.2648 41.3239 94.6653C41.4381 94.8322 41.5611 94.9991 41.6841 95.1572C43.634 97.9767 46.8839 99.3206 50.1689 99.2767C53.4452 99.3294 56.7039 97.9767 58.6538 95.1572C58.7768 94.9991 58.8997 94.8322 59.0139 94.6653C61.9564 90.2648 65.7948 84.8893 69.4312 77.7571C70.2656 76.1672 71.0122 74.6389 71.5919 73.2335C72.6459 70.8444 73.6736 68.2884 74.631 65.5304Z" fill="#F89E1C"/>
<path d="M59.5672 82.6493C62.0003 77.9414 57.1781 74.7091 51.8202 77.8096C45.4346 81.4987 41.6577 79.8386 37.3977 72.7767C33.937 67.0323 28.8777 68.5167 27.1034 69.2721C27.6568 70.6686 28.2189 72.0213 28.7986 73.3125C29.3783 74.7091 30.1249 76.2462 30.9594 77.836C34.5957 84.9682 38.4341 90.3437 41.3766 94.7442C41.4908 94.9111 41.6138 95.078 41.7367 95.2361C43.6867 98.0556 46.9366 99.3995 50.2216 99.3556C53.4978 99.4083 56.7565 98.0556 58.7065 95.2361C58.8294 95.078 58.9524 94.9111 59.0666 94.7442C60.024 93.3037 61.0868 91.7666 62.1935 90.089C59.6463 89.6762 57.2133 87.1992 59.5672 82.6493Z" fill="#032663"/>
<path d="M50.0021 99.5055C46.5326 99.5055 43.3881 97.9509 41.5699 95.3158C41.4469 95.1577 41.324 94.9908 41.2098 94.8151C40.7882 94.1827 40.3402 93.524 39.8835 92.8476C37.2133 88.9038 33.9019 84.0026 30.7837 77.8893C29.8966 76.2029 29.1676 74.6745 28.6142 73.357C28.0257 72.0483 27.4548 70.6868 26.919 69.3166L26.8663 69.1761L27.0068 69.1146C29.0007 68.2626 34.0161 66.9099 37.4943 72.6895C41.851 79.9183 45.5664 81.2183 51.7061 77.6697C54.9735 75.7813 57.8457 76.2819 59.2423 77.617C60.5247 78.8467 60.6916 80.7527 59.6727 82.7202C58.645 84.7141 58.4606 86.4796 59.1457 87.8322C59.6991 88.9214 60.8321 89.7031 62.176 89.9227L62.4219 89.9579L62.2814 90.1599C61.6578 91.0997 61.0517 91.9956 60.4632 92.8564C60.0065 93.5327 59.5673 94.1827 59.1457 94.8064C59.0315 94.982 58.9085 95.1489 58.7856 95.307C56.941 97.9772 53.7351 99.5495 50.1777 99.488C50.1162 99.5055 50.0548 99.5055 50.0021 99.5055ZM50.1777 99.1893C53.6297 99.242 56.739 97.7313 58.5308 95.1401C58.6538 94.9732 58.7768 94.8151 58.8822 94.6482C59.3038 94.0158 59.743 93.3659 60.1997 92.6895C60.7443 91.8902 61.2977 91.0558 61.8774 90.195C60.5335 89.9139 59.418 89.0971 58.8558 87.9816C58.3464 86.9715 58.0214 85.2148 59.3916 82.5797L59.5322 82.65L59.3916 82.5797C60.3403 80.744 60.2085 78.9785 59.0227 77.8542C57.7052 76.5981 54.9823 76.1414 51.8642 77.9508C45.6103 81.5696 41.6402 80.1906 37.2221 72.8651C33.9458 67.4369 29.273 68.5437 27.2703 69.3605C27.7886 70.6781 28.3419 71.9868 28.9041 73.2516C29.4486 74.5691 30.1777 76.0799 31.0648 77.7663C34.1742 83.8621 37.4856 88.7545 40.147 92.6895C40.6037 93.3659 41.0517 94.0246 41.4733 94.657C41.5875 94.8239 41.7016 94.982 41.8246 95.1489C43.6164 97.7313 46.7434 99.2508 50.1777 99.1893Z" fill="#10319B"/>
<path d="M50.327 99.5046C50.2655 99.5046 50.2128 99.5046 50.1514 99.5046C46.6204 99.5573 43.3881 97.9939 41.5435 95.3149C41.4206 95.1568 41.2976 94.9899 41.1834 94.8142C40.7618 94.1818 40.3138 93.5231 39.8571 92.8467C37.1869 88.9029 33.8755 84.0018 30.7574 77.8884C29.8702 76.202 29.1412 74.6737 28.5878 73.3561C27.4636 70.8353 26.4359 68.2441 25.5312 65.6442C24.1083 61.5599 24.7494 57.2033 27.2791 53.7074C29.8 50.2291 33.6998 48.2792 38.0038 48.3407L41.4557 48.3934H41.526L50.1514 48.5339L58.7768 48.3934H58.8207L62.3077 48.3407C66.6117 48.2704 70.5115 50.2291 73.0324 53.7074C75.5621 57.2033 76.2033 61.5599 74.7803 65.6442C73.8756 68.2441 72.8479 70.8441 71.7237 73.3649C71.1791 74.6824 70.4501 76.2108 69.5541 77.8972C66.436 84.0017 63.1158 88.9117 60.4544 92.8555C59.9977 93.5319 59.5497 94.1906 59.1281 94.823C59.0139 94.9987 58.891 95.1656 58.768 95.3237C56.9498 97.95 53.8053 99.5046 50.327 99.5046ZM50.1514 99.1884C53.6033 99.2411 56.7126 97.7304 58.5045 95.1392C58.6274 94.9724 58.7504 94.8142 58.8558 94.6474C59.2774 94.0149 59.7254 93.3562 60.1821 92.6799C62.8435 88.7448 66.1549 83.8436 69.2643 77.7567C70.1514 76.079 70.8717 74.5595 71.425 73.2507C72.5493 70.7386 73.577 68.1475 74.4729 65.5564C75.8607 61.5687 75.2371 57.3174 72.7689 53.9094C70.3095 50.519 66.4887 48.613 62.3077 48.6745L58.8558 48.7272H58.8119L50.1601 48.8677L41.526 48.7272H41.4557L37.995 48.6745C33.814 48.613 29.9932 50.519 27.5338 53.9094C25.0657 57.3262 24.442 61.5687 25.8298 65.5564C26.7257 68.1475 27.7534 70.7386 28.8777 73.2507C29.4223 74.5683 30.1513 76.079 31.0384 77.7655C34.1478 83.8612 37.4592 88.7536 40.1206 92.6886C40.5773 93.365 41.0253 94.0237 41.4469 94.6562C41.5611 94.823 41.6753 94.9811 41.7982 95.148C43.5989 97.7304 46.7258 99.2499 50.1514 99.1884Z" fill="#10319B"/>
<path d="M70.4853 53.1108C68.2631 51.1872 65.4348 50.0278 62.2728 50.0892L58.8033 50.1507C58.7769 50.1507 58.7594 50.1507 58.733 50.1507L50.0637 50.3L41.3944 50.1507C41.368 50.1507 41.3504 50.1507 41.3241 50.1507L37.8546 50.0892C33.0412 50.0102 30.4237 53.4709 28.1576 57.4323C27.6482 58.3282 28.1488 59.4876 29.1238 59.6808C37.3364 61.3058 56.0189 63.124 70.4853 53.1108Z" fill="#E26907"/>
<path d="M47.9029 76.281C47.0772 76.281 46.2428 76.079 45.4786 75.6662C43.8537 74.7878 42.8524 73.1629 42.7909 71.3183L42.4747 60.743C42.422 58.8985 43.3267 57.212 44.8989 56.2458C46.4712 55.2709 48.3772 55.2182 50.0021 56.0965L59.3917 61.147C60.964 61.9903 61.9565 63.5537 62.0531 65.3368C62.1497 67.1198 61.3241 68.7799 59.8572 69.7812C59.8133 69.8164 59.7606 69.8427 59.7167 69.8779L59.6552 69.913L50.5906 75.5169C49.7562 76.0175 48.8252 76.281 47.9029 76.281ZM47.5779 56.1053C46.7698 56.1053 45.9529 56.3337 45.2239 56.7816C43.8449 57.6336 43.0544 59.1093 43.1071 60.7254L43.4233 71.3008C43.476 72.9169 44.3543 74.3399 45.7773 75.104C47.2002 75.8682 48.8779 75.8243 50.2481 74.9723L59.3742 69.3333C59.4181 69.3069 59.462 69.2806 59.4971 69.2542C60.7795 68.3759 61.4998 66.9266 61.4119 65.3631C61.3329 63.8084 60.4633 62.4382 59.0843 61.7004L49.6947 56.6499C49.0272 56.281 48.2981 56.1053 47.5779 56.1053Z" fill="#F89E1C"/>
<path d="M47.859 76.361C47.0421 76.361 46.2165 76.159 45.4523 75.7462C43.8362 74.8766 42.8436 73.2692 42.7909 71.4335L42.4659 60.5946C42.4132 58.7676 43.3091 57.0988 44.8638 56.1326C46.4185 55.1664 48.3157 55.1137 49.9319 55.9833L59.5498 61.1655C61.1045 62 62.0883 63.5546 62.1849 65.3201C62.2815 67.0856 61.4647 68.7369 60.0154 69.7295C59.9715 69.7646 59.9188 69.7909 59.8748 69.8261L59.8134 69.8612L50.5204 75.6056C49.6948 76.1063 48.7813 76.361 47.859 76.361ZM47.5252 55.6934C46.6644 55.6934 45.8037 55.9306 45.0307 56.4137C43.5726 57.3184 42.7294 58.8818 42.7821 60.5946L43.1071 71.4335C43.1598 73.1462 44.0909 74.657 45.6016 75.4739C47.1124 76.2907 48.8867 76.238 50.3535 75.3333L59.6992 69.5538C59.7431 69.5274 59.787 69.4923 59.8309 69.466C61.1924 68.5349 61.9565 66.9978 61.8687 65.3377C61.7809 63.6864 60.8586 62.2283 59.4005 61.4466L49.7826 56.2643C49.0711 55.8866 48.2982 55.6934 47.5252 55.6934Z" fill="#10319B"/>
<path d="M48.4913 73.8483C47.8589 73.8483 47.2265 73.6902 46.638 73.374C45.3907 72.7065 44.6266 71.468 44.5827 70.0539L44.3455 62.1311C44.3016 60.717 44.9955 59.4346 46.1988 58.6968C47.4022 57.9502 48.8602 57.9151 50.0987 58.5826L57.1255 62.3683C58.3289 63.0183 59.0842 64.2128 59.1545 65.5743C59.2248 66.9357 58.6011 68.2093 57.4769 68.9735C57.4417 68.9998 57.4066 69.0174 57.3715 69.0438L57.3275 69.0701L50.5379 73.2686C49.9055 73.6463 49.2028 73.8483 48.4913 73.8483ZM48.2454 58.7407C47.6481 58.7407 47.0596 58.9076 46.5238 59.2326C45.5225 59.8562 44.9428 60.9278 44.9779 62.1136L45.2151 70.0363C45.2502 71.2221 45.8914 72.2585 46.9366 72.8207C47.9731 73.3828 49.2028 73.3477 50.2041 72.724L57.0289 68.4992C57.064 68.4816 57.0904 68.4553 57.1167 68.4377C58.0566 67.7965 58.5748 66.7337 58.5133 65.6006C58.4518 64.4676 57.8194 63.4662 56.8181 62.9217L49.7913 59.136C49.3082 58.8725 48.7812 58.7407 48.2454 58.7407Z" fill="#F89E1C"/>
<path d="M57.1342 68.701C57.1693 68.6835 57.2044 68.6571 57.2308 68.6395C59.3652 67.1815 59.2158 63.9579 56.9146 62.7195L50.0459 59.0128C47.6655 57.7304 44.8021 59.5047 44.8812 62.21L45.1095 69.9483C45.1886 72.6448 48.1662 74.2434 50.4587 72.8293L57.099 68.7274C57.1078 68.7186 57.1254 68.7098 57.1342 68.701Z" fill="#032663"/>
<path d="M54.262 67.507C54.2795 67.4982 54.2971 67.4806 54.3147 67.4718C55.518 66.655 55.4302 64.8368 54.1302 64.1341L50.2567 62.0524C48.9128 61.3321 47.2966 62.3335 47.3493 63.853L47.4811 68.2184C47.525 69.738 49.2027 70.6427 50.4938 69.8434L54.2356 67.5333C54.2444 67.5245 54.2532 67.5157 54.262 67.507Z" fill="#33FCFE"/>
<path d="M71.8116 56.0881C70.74 57.309 64.4949 60.4096 64.4949 60.4096C64.4949 60.4096 66.6381 62.017 66.6732 65.4162C66.6995 67.9547 64.3016 70.2296 64.3016 70.2296C66.4624 72.4342 65.6455 76.3253 64.0469 79.2766C62.4483 82.2279 63.8625 83.0886 63.8625 83.0886C63.8625 83.0886 73.2081 69.1229 74.025 61.2792C74.3588 58.0908 71.8116 56.0881 71.8116 56.0881Z" fill="#F4B821"/>
<path d="M29.5892 70.8618C29.5892 70.8618 32.0135 70.4578 33.3134 72.1003C34.6134 73.7428 42.3429 88.3146 45.9441 93.5233C46.5941 94.4631 48.263 97.6866 50.1163 97.0454C50.1163 97.0454 47.5339 98.5123 43.7307 94.6827C39.9362 90.8443 31.8202 75.4819 29.5892 70.8618Z" fill="#0E51A0"/>
<path d="M25.2522 9.92082C27.0218 8.67324 29.1365 7.61147 31.4724 6.72666L31.3219 6.76206C31.3219 6.76206 38.8251 2.6123 50.0179 2.6123C61.1754 2.6123 68.767 6.63818 68.8113 6.66473C71.218 7.55838 73.3769 8.63785 75.1907 9.91197C83.9238 16.0614 83.2071 29.2716 79.3759 41.7208C76.6064 50.7813 63.4139 54.9045 50.2303 54.701C37.0467 54.9045 23.8542 50.7813 21.067 41.7208C17.2358 29.2804 16.5191 16.0702 25.2522 9.92082Z" fill="#F89E1C"/>
<path d="M25.252 9.96645C26.1811 9.31169 27.2075 8.71002 28.3046 8.15259C19.7485 14.3728 20.4741 27.5122 24.2787 39.8995C27.0659 48.9777 40.2495 53.1009 53.442 52.9062C60.9364 53.0212 68.4307 51.7294 74.0227 48.9334C68.3334 53.0743 59.2818 54.9855 50.2213 54.8439C37.0377 55.0474 23.8452 50.9154 21.058 41.8372C17.2357 29.3703 16.519 16.1336 25.252 9.96645Z" fill="#F5851F"/>
<path d="M29.331 21.0447C23.978 19.9299 23.624 11.4003 23.6063 11.0287L24.2434 11.011C24.2434 11.0906 24.5973 19.4078 29.4549 20.4165L29.331 21.0447Z" fill="#F89E1C"/>
<path d="M69.9702 21.3711L69.7932 20.7605C75.1198 19.2121 75.4295 10.5587 75.4295 10.4702L76.0665 10.4879C76.0577 10.8595 75.7392 19.6988 69.9702 21.3711Z" fill="#F4B821"/>
<path d="M50.4159 10.1963C47.4164 10.1963 44.6293 9.21415 43.0012 7.55955C42.9481 7.50647 42.895 7.45338 42.842 7.39144L39.9221 4.09995L40.6388 3.46289L43.5587 6.74553C43.594 6.78977 43.6383 6.83401 43.6825 6.87825C45.2663 8.4886 48.1154 9.37341 51.1326 9.21415C54.0613 9.05488 56.6096 7.94002 57.9456 6.25004L60.0338 3.59561L60.7859 4.18843L58.6977 6.84286C57.2024 8.75405 54.3887 9.99278 51.1857 10.1697C50.9203 10.1874 50.6725 10.1963 50.4159 10.1963Z" fill="#F4B821"/>
<path d="M50.3983 13.6554C46.4255 13.6554 42.8243 12.3193 40.5327 9.98343C40.4531 9.9038 40.3646 9.81532 40.2849 9.72684L40.1965 9.62951L36.1883 5.12583L36.905 4.48877L40.9928 9.08977C41.0636 9.16941 41.1344 9.24904 41.214 9.31982C43.3287 11.4611 46.6821 12.6998 50.3983 12.6998C50.6991 12.6998 51.0088 12.6909 51.3185 12.6732C55.2824 12.452 58.689 10.8948 60.6532 8.39077L63.635 4.59495L64.3871 5.18777L61.4053 8.9836C59.2729 11.7 55.6098 13.3899 51.3716 13.6288C51.0531 13.6465 50.7257 13.6554 50.3983 13.6554Z" fill="#F4B821"/>
<path d="M74.6953 12.2479C72.8814 10.9649 70.7225 9.86773 68.3158 8.97408C68.2627 8.94753 60.6534 4.31114 49.496 4.31114C42.1521 4.30229 35.7372 5.53217 32.1803 6.37274C34.4365 5.31097 41.0372 2.6123 50.0268 2.6123C61.1843 2.6123 68.7759 6.67358 68.8202 6.70012C71.2269 7.60262 73.3858 8.69094 75.1996 9.97391C82.986 15.504 83.2603 26.6968 80.5085 37.9516C82.6851 27.4931 81.9596 17.4063 74.6953 12.2479Z" fill="#F4B821"/>
<path d="M70.4922 20.9372L70.4303 20.6275C75.4206 19.5923 75.9603 10.7088 75.9692 10.6204L76.2877 10.6381C76.2611 11.0097 75.7214 19.8489 70.4922 20.9372Z" fill="#10319B"/>
<path d="M61.0249 8.65721L64.0067 4.86138C62.9626 4.52515 61.7505 4.18008 60.3967 3.86155L58.3086 6.51597C56.8929 8.32098 54.2119 9.48893 51.1505 9.66589C48.0005 9.84285 45.0099 8.89611 43.3376 7.18843C43.2845 7.13534 43.2403 7.0911 43.196 7.03801L40.2762 3.75537C38.887 4.06505 37.6394 4.41898 36.5511 4.76405L40.5593 9.26773L40.6478 9.36506C40.7274 9.44469 40.7982 9.53317 40.8778 9.6128C43.081 11.8514 46.5848 13.1343 50.3984 13.1343C50.7081 13.1343 51.0266 13.1255 51.3451 13.1078C55.4418 12.8954 58.9722 11.2674 61.0249 8.65721Z" fill="#032663"/>
<path d="M29.8529 20.9383C24.6237 19.85 24.0486 11.0993 24.0221 10.7277L24.3406 10.71C24.3494 10.7984 24.9246 19.5934 29.9149 20.6287L29.8529 20.9383Z" fill="#10319B"/>
<path d="M50.1593 54.5876C43.6383 54.6849 37.1261 53.7824 31.7288 51.8004C30.4723 50.4555 29.4725 48.7213 28.8885 46.7039C27.3932 41.5278 25.7121 34.2901 25.0662 26.1587C24.7476 22.1593 27.0039 18.5316 30.2423 17.753C34.6575 16.6912 41.4705 15.4613 49.5577 15.3375V15.3286C49.7877 15.3286 50.0089 15.3375 50.239 15.3375C50.469 15.3375 50.6902 15.3286 50.9203 15.3286V15.3375C59.0074 15.4613 65.6612 16.4877 70.0764 17.5495C73.3148 18.3281 75.7303 22.1593 75.4118 26.1587C74.7659 34.2901 73.0847 41.5278 71.5894 46.7039C71.0143 48.677 70.0498 50.3759 68.8288 51.7208C63.3695 53.7558 56.76 54.6849 50.1593 54.5876Z" fill="#032663"/>
<path d="M72.6777 49.7027L71.3947 50.4017C71.6336 49.6938 72.0318 48.4993 72.2972 47.6588C73.0051 45.4468 73.8102 42.9339 74.5269 41.2528C75.686 38.5364 78.9067 36.4837 81.0214 35.4573L80.6587 36.8464C78.6855 37.8109 76.447 39.1823 75.4029 41.6332C74.7039 43.279 73.9076 45.7653 73.1997 47.9596C72.9431 48.7913 72.9166 48.9948 72.6777 49.7027Z" fill="#F4B821"/>
<path d="M28.1719 49.9065C28.1011 49.9065 28.0391 49.8623 28.0214 49.8003C27.8091 49.1721 27.5879 48.482 27.3578 47.783C26.6677 45.6506 25.8802 43.2262 25.1458 41.5008C24.0752 38.9968 21.7747 37.6077 19.66 36.5724C19.5804 36.537 19.545 36.4397 19.5892 36.3601C19.6246 36.2804 19.7219 36.2451 19.8016 36.2893C21.9694 37.3422 24.3318 38.7756 25.4467 41.3769C26.1899 43.12 26.9774 45.5444 27.6675 47.6856C27.8976 48.3846 28.1188 49.0659 28.3223 49.703C28.3488 49.7826 28.3046 49.8799 28.225 49.9065C28.2073 49.9065 28.1896 49.9065 28.1719 49.9065Z" fill="#F89E1C"/>
<path d="M80.765 36.8022C80.3845 38.448 79.9421 40.1026 79.4377 41.7395C78.4025 45.1194 75.9516 47.8093 72.5982 49.862C73.4653 47.2695 74.1908 44.3762 75.1641 42.0846C76.3232 39.3859 78.898 37.7048 80.765 36.8022Z" fill="#032663"/>
<path d="M78.4911 41.9435C78.845 40.9879 79.1724 40.0323 79.4821 39.0679C78.4911 39.7049 77.4736 40.6251 76.8542 41.9081C76.1906 43.2707 75.6066 44.9518 75.005 46.5533C76.5799 45.3412 77.7921 43.8104 78.4911 41.9435Z" fill="#0E51A0"/>
<path d="M72.8016 49.8442L72.5008 49.7469C72.8016 48.8532 73.0847 47.9065 73.359 46.9951C73.8811 45.2609 74.4296 43.4736 75.0667 41.9606C76.217 39.2531 78.7918 37.5542 80.7383 36.5986L80.8799 36.8818C78.9776 37.8108 76.4824 39.4566 75.3587 42.0756C74.7216 43.5709 74.1819 45.3494 73.6599 47.0748C73.3856 48.0038 73.1024 48.9506 72.8016 49.8442Z" fill="#10319B"/>
<path d="M19.6601 36.8022C20.0406 38.448 20.483 40.1026 20.9873 41.7395C22.0225 45.1194 24.4734 47.8093 27.8269 49.862C26.9598 47.2695 26.2342 44.3762 25.2609 42.0846C24.1107 39.3859 21.527 37.7048 19.6601 36.8022Z" fill="#032663"/>
<path d="M51.0971 54.8436C50.8051 54.8436 50.5131 54.8436 50.2299 54.8348C38.6124 55.0117 23.9777 51.6937 20.9163 41.7573C18.1733 32.8561 15.0854 16.8765 25.1633 9.78032L25.2518 9.91304L25.1633 9.78032C26.9241 8.54158 31.1977 6.65694 31.3835 6.57731C31.4455 6.54192 38.9221 2.4541 50.0264 2.4541C61.1662 2.4541 68.8198 6.47998 68.8994 6.52422C71.368 7.43557 73.527 8.53274 75.2966 9.78032C85.3745 16.8765 82.2866 32.8561 79.5437 41.7484C76.553 51.4459 62.5553 54.8436 51.0971 54.8436ZM50.2211 54.5162C50.5042 54.5162 50.7962 54.5251 51.0882 54.5251C62.4403 54.5251 76.2964 51.1894 79.234 41.66C81.9503 32.8473 85.0206 17.0269 75.1108 10.0458C73.3588 8.81587 71.2265 7.72756 68.7667 6.81621C68.6694 6.76312 61.0777 2.78148 50.0264 2.78148C39.0106 2.78148 31.5959 6.82506 31.5251 6.8693C31.472 6.89584 27.0922 8.82472 25.3491 10.0458C15.4304 17.018 18.5096 32.8473 21.2171 41.66C24.2254 51.4282 38.7274 54.6932 50.2211 54.5162Z" fill="#10319B"/>
<path d="M50.23 53.1891C44.638 53.2687 39.0549 52.5697 34.2946 51.039C33.5602 50.8001 32.8966 50.3577 32.4365 49.7383C31.6491 48.6943 31.0297 47.4644 30.6138 46.0929C29.2335 41.4388 27.6851 34.9178 27.0923 27.6004C26.8003 23.9993 28.8796 20.7343 31.8614 20.0353C35.9315 19.0797 42.2137 17.9737 49.6726 17.8587V17.8499C49.885 17.8499 50.0885 17.8499 50.3008 17.8587C50.5132 17.8587 50.7167 17.8499 50.929 17.8499V17.8587C58.388 17.9737 64.6613 19.0797 68.7402 20.0353C71.7309 20.7343 73.8013 23.9993 73.5093 27.6004C72.9077 34.9178 71.3681 41.4388 69.9878 46.0929C69.5808 47.4555 68.9703 48.6677 68.1916 49.703C67.7492 50.2958 67.1299 50.7205 66.4309 50.9505C61.5998 52.552 55.9193 53.2776 50.23 53.1891Z" fill="#FCE8CA"/>
<path d="M49.1686 54.6582C42.7184 54.6582 36.684 53.6937 31.6671 51.8533L31.6317 51.8445L31.6052 51.8179C30.2957 50.4111 29.3047 48.6238 28.7295 46.6506C27.3581 41.8904 25.5708 34.4491 24.8983 26.0346C24.5709 21.9379 26.8449 18.2483 30.1983 17.4431C34.702 16.3636 54.6987 13.196 70.2624 17.4431C73.5982 18.3545 75.8721 22.0441 75.5536 26.0346C74.8811 34.4491 73.1027 41.8904 71.7224 46.6506C71.165 48.5884 70.1917 50.3491 68.9264 51.7383L68.8998 51.7648L68.8645 51.7825C63.6264 53.7468 56.9815 54.7732 50.1508 54.667C49.8234 54.6582 49.496 54.6582 49.1686 54.6582ZM50.1596 54.3308C56.9372 54.437 63.5202 53.4194 68.7229 51.4817C69.9439 50.1279 70.8818 48.4291 71.4215 46.5533C72.793 41.8107 74.5715 34.3872 75.2351 25.9992C75.5448 22.1591 73.3681 18.6111 70.174 17.7439C54.6721 13.5146 34.7551 16.6733 30.2691 17.7439C27.075 18.5137 24.8983 22.0618 25.2169 25.9992C25.8893 34.3872 27.6589 41.8107 29.0304 46.5533C29.5878 48.4733 30.5434 50.2076 31.8087 51.5702C36.9671 53.446 43.4793 54.437 50.1596 54.3308Z" fill="#10319B"/>
<path d="M27.6851 49.7377C27.3931 48.8706 27.1188 47.9681 26.8534 47.0922C26.3313 45.3756 25.7827 43.606 25.1368 42.0841C24.022 39.4651 21.518 37.8105 19.6156 36.8903L19.7572 36.6072C21.7038 37.5539 24.2697 39.2528 25.4288 41.9691C26.0836 43.4998 26.6321 45.2871 27.1542 47.0037C27.4196 47.8796 27.6939 48.7821 27.9859 49.6404L27.6851 49.7377Z" fill="#10319B"/>
<path d="M76.0841 36.7317L80.1808 34.3427C80.1808 34.3427 81.3487 22.5748 77.5441 17.2217L76.4469 20.5928C76.4469 20.5928 78.2077 23.1499 76.0841 36.7317Z" fill="#F4B821"/>
<ellipse cx="50.4685" cy="45.2283" rx="2.17952" ry="2.99685" fill="#032663"/>
<path d="M36.4293 29.5259C36.4813 29.5172 36.5332 29.4912 36.5765 29.4479C37.2435 28.8675 38.1184 28.6336 38.9847 28.8156C39.1752 28.8589 39.3571 28.7376 39.3918 28.547C39.4351 28.3565 39.3138 28.1745 39.1233 28.1399C38.0405 27.9147 36.949 28.2005 36.1174 28.9282C35.9702 29.0581 35.9615 29.2747 36.0828 29.4219C36.1781 29.5172 36.308 29.5518 36.4293 29.5259Z" fill="#032663"/>
<path d="M64.2527 29.5261C64.2007 29.5174 64.1487 29.4915 64.1054 29.4481C63.4384 28.8678 62.5635 28.6339 61.6973 28.8158C61.5067 28.8591 61.3248 28.7378 61.2902 28.5473C61.2469 28.3567 61.3681 28.1748 61.5587 28.1401C62.6415 27.9149 63.7329 28.2008 64.5645 28.9284C64.7118 29.0583 64.7204 29.2749 64.5992 29.4222C64.5125 29.5174 64.374 29.5521 64.2527 29.5261Z" fill="#032663"/>
<path d="M45.145 38.4387C45.0757 38.6293 44.9891 38.8199 44.8852 38.9931L38.7869 39.5128C38.657 39.3569 38.5444 39.1837 38.4491 39.0018L45.145 38.4387Z" fill="#0052A3"/>
<path d="M45.3441 37.6843C45.3181 37.8749 45.2748 38.0568 45.2228 38.23L38.3449 38.8191C38.267 38.6545 38.1977 38.4813 38.1371 38.2993L45.3441 37.6843Z" fill="#0052A3"/>
<path d="M45.3441 36.1948L45.3787 36.7319L37.9552 37.3642L37.9119 36.8358L45.3441 36.1948Z" fill="#0052A3"/>
<path d="M45.3877 36.9399C45.3964 37.1218 45.3877 37.3038 45.3704 37.477L38.0681 38.1007C38.0248 37.9274 37.9901 37.7542 37.9728 37.5723L45.3877 36.9399Z" fill="#0052A3"/>
<path d="M44.0537 40.0151C43.7505 40.275 43.4127 40.4829 43.0402 40.6388L40.8833 40.8207C40.4935 40.7341 40.121 40.5782 39.7832 40.379L44.0537 40.0151Z" fill="#0052A3"/>
<path d="M44.1921 31.6384L38.3364 32.1408C38.4664 31.9329 38.6223 31.7424 38.7869 31.5691L43.6637 31.1533C43.8543 31.2919 44.0362 31.4565 44.1921 31.6384Z" fill="#0052A3"/>
<path d="M44.755 39.218C44.6165 39.4259 44.4605 39.6165 44.2959 39.7897L39.497 40.1969C39.2978 40.0496 39.1159 39.885 38.9513 39.7031L44.755 39.218Z" fill="#0052A3"/>
<path d="M42.3557 30.5208C42.7281 30.616 43.0746 30.7633 43.3951 30.9712L39.0207 31.3437C39.3065 31.0925 39.627 30.8846 39.9822 30.7286L42.3557 30.5208Z" fill="#0052A3"/>
<path d="M44.7897 32.5398C44.8677 32.7044 44.937 32.8776 44.9889 33.0595L37.756 33.6746C37.7819 33.484 37.8252 33.3021 37.8772 33.1288L44.7897 32.5398Z" fill="#0052A3"/>
<path d="M45.0498 33.2588C45.0931 33.432 45.1278 33.6053 45.1451 33.7872L37.7302 34.4195C37.7215 34.2376 37.7215 34.0557 37.7389 33.8825L45.0498 33.2588Z" fill="#0052A3"/>
<path d="M44.3655 31.8289C44.4868 31.9848 44.5994 32.158 44.6947 32.3399L37.9554 32.9116C38.0247 32.7211 38.1027 32.5305 38.2066 32.3573L44.3655 31.8289Z" fill="#0052A3"/>
<path d="M45.2231 34.7222L45.2664 35.2592L37.8428 35.8916L37.7995 35.3545L45.2231 34.7222Z" fill="#0052A3"/>
<path d="M45.1708 33.9866L45.2054 34.5236L37.7819 35.156L37.7386 34.6189L45.1708 33.9866Z" fill="#0052A3"/>
<path d="M45.2836 35.458L45.3269 35.9951L37.8946 36.6274L37.86 36.0904L45.2836 35.458Z" fill="#0052A3"/>
<path d="M62.5579 38.8361C62.4626 39.018 62.3587 39.1999 62.2374 39.3645L56.1132 39.1739C56.0092 39.0007 55.9139 38.8187 55.836 38.6282L62.5579 38.8361Z" fill="#0052A3"/>
<path d="M62.8438 38.1084C62.7919 38.2903 62.7312 38.4636 62.6533 38.6368L55.7494 38.4289C55.6888 38.2557 55.6368 38.0738 55.6022 37.8918L62.8438 38.1084Z" fill="#0052A3"/>
<path d="M63.0083 36.6276L62.9823 37.1646L55.5328 36.9394L55.5587 36.4023L63.0083 36.6276Z" fill="#0052A3"/>
<path d="M62.9737 37.3726C62.9564 37.5545 62.939 37.7277 62.8957 37.901L55.5761 37.6757C55.5501 37.5025 55.5415 37.3206 55.5415 37.1387L62.9737 37.3726Z" fill="#0052A3"/>
<path d="M61.2845 40.2742C60.9553 40.4994 60.5915 40.664 60.2017 40.7766L58.0361 40.7073C57.655 40.5774 57.3085 40.3782 56.9967 40.1443L61.2845 40.2742Z" fill="#0052A3"/>
<path d="M62.3933 31.9676L56.5202 31.7944C56.6762 31.6038 56.8494 31.4306 57.0313 31.2747L61.9168 31.4219C62.0987 31.5865 62.2547 31.7684 62.3933 31.9676Z" fill="#0052A3"/>
<path d="M62.0814 39.5634C61.9255 39.754 61.7436 39.9272 61.553 40.0831L56.7454 39.9359C56.5635 39.7713 56.4076 39.5894 56.2604 39.3901L62.0814 39.5634Z" fill="#0052A3"/>
<path d="M60.6954 30.6422C61.0505 30.7808 61.3884 30.9713 61.6829 31.2052L57.2911 31.0666C57.603 30.8501 57.9495 30.6768 58.3133 30.5642L60.6954 30.6422Z" fill="#0052A3"/>
<path d="M62.8871 32.9285C62.9477 33.1017 62.991 33.2836 63.0257 33.4655L55.7753 33.2403C55.8273 33.0584 55.8879 32.8852 55.9572 32.7119L62.8871 32.9285Z" fill="#0052A3"/>
<path d="M63.0603 33.6741C63.0863 33.8473 63.095 34.0292 63.095 34.2111L55.6541 33.9859C55.6627 33.804 55.6887 33.6308 55.7234 33.4575L63.0603 33.6741Z" fill="#0052A3"/>
<path d="M62.5405 32.1754C62.6445 32.3487 62.7311 32.5306 62.809 32.7212L56.0525 32.5133C56.1478 32.3314 56.243 32.1494 56.3643 31.9849L62.5405 32.1754Z" fill="#0052A3"/>
<path d="M63.0604 35.1542L63.043 35.6826L55.5935 35.4573L55.6108 34.929L63.0604 35.1542Z" fill="#0052A3"/>
<path d="M63.095 34.418L63.069 34.9464L55.6194 34.7211L55.6454 34.1841L63.095 34.418Z" fill="#0052A3"/>
<path d="M63.0342 35.8912L63.0169 36.4283L55.5673 36.1944L55.5847 35.666L63.0342 35.8912Z" fill="#0052A3"/>
<path fill-rule="evenodd" clip-rule="evenodd" d="M59.7767 42.5979C55.4471 42.5979 51.9392 39.0764 51.9392 34.7604C51.9392 30.4309 55.4471 26.9094 59.7767 26.9094C64.0927 26.9094 67.6142 30.4309 67.6142 34.7604C67.6142 39.0764 64.0927 42.5979 59.7767 42.5979ZM40.7784 42.5979C36.4623 42.5979 32.9409 39.0764 32.9409 34.7604C32.9409 30.4309 36.4623 26.9094 40.7784 26.9094C45.1079 26.9094 48.6294 30.4309 48.6294 34.7604C48.6294 39.0764 45.1079 42.5979 40.7784 42.5979ZM59.7766 23.6006C55.7656 23.6006 52.2429 25.7457 50.2848 28.9363C48.3119 25.7457 44.8027 23.6006 40.7782 23.6006C34.6356 23.6006 29.6308 28.6054 29.6308 34.7615C29.6308 40.9041 34.6356 45.9089 40.7782 45.9089C44.8027 45.9089 48.3119 43.7638 50.2848 40.5744C52.2429 43.7638 55.7656 45.9089 59.7766 45.9089C65.9204 45.9089 70.924 40.9041 70.924 34.7615C70.924 28.6054 65.9204 23.6006 59.7766 23.6006Z" fill="#002E6D"/>
<path fill-rule="evenodd" clip-rule="evenodd" d="M67.5135 34.8234C67.5135 39.1826 63.9537 42.7393 59.5907 42.7393C55.214 42.7393 51.668 39.1826 51.668 34.8234C51.668 30.4505 55.214 26.8938 59.5907 26.8938C63.9537 26.8938 67.5135 30.4505 67.5135 34.8234Z" fill="#92E0FF"/>
<path fill-rule="evenodd" clip-rule="evenodd" d="M48.499 34.8234C48.499 39.1826 44.9423 42.7393 40.5694 42.7393C36.2102 42.7393 32.6535 39.1826 32.6535 34.8234C32.6535 30.4505 36.2102 26.8938 40.5694 26.8938C44.9423 26.8938 48.499 30.4505 48.499 34.8234Z" fill="#92E0FF"/>
<path fill-rule="evenodd" clip-rule="evenodd" d="M35.914 39.5708C35.5669 39.5708 35.2186 39.4383 34.9535 39.1732C34.4221 38.6418 34.4221 37.7822 34.9535 37.2508L41.7428 30.4611C42.2741 29.9309 43.1337 29.9309 43.6638 30.4611C44.1952 30.9925 44.1952 31.8521 43.6638 32.3835L36.8746 39.1732C36.6095 39.4383 36.2611 39.5708 35.914 39.5708Z" fill="white"/>
<path fill-rule="evenodd" clip-rule="evenodd" d="M41.5378 38.9366C41.2113 38.9366 40.8836 38.8008 40.6343 38.5251C40.1344 37.9765 40.1344 37.0855 40.6343 36.5369L44.4157 32.3761C44.9155 31.8274 45.7241 31.8274 46.2227 32.3761C46.7226 32.9248 46.7226 33.8144 46.2227 34.3644L42.4413 38.5251C42.192 38.8008 41.8643 38.9366 41.5378 38.9366Z" fill="white"/>
<path fill-rule="evenodd" clip-rule="evenodd" d="M57.4639 40.2046C57.1168 40.2046 56.7684 40.0721 56.5034 39.807C55.972 39.2769 55.972 38.4161 56.5034 37.8848L63.2926 31.0958C63.824 30.5644 64.6835 30.5644 65.2136 31.0958C65.745 31.6259 65.745 32.4867 65.2136 33.0167L58.4244 39.807C58.1594 40.0721 57.811 40.2046 57.4639 40.2046Z" fill="white"/>
<path fill-rule="evenodd" clip-rule="evenodd" d="M57.3825 35.1339C57.056 35.1339 56.7283 35.0092 56.4789 34.7598C55.9802 34.2599 55.9802 33.4513 56.4789 32.9514L60.2609 29.1706C60.7608 28.6707 61.5694 28.6707 62.0681 29.1706C62.568 29.6693 62.568 30.4779 62.0681 30.9779L58.2862 34.7598C58.0368 35.0092 57.7091 35.1339 57.3825 35.1339Z" fill="white"/>
<path d="M14.8355 57.3684C15.7751 52.2646 18.8989 40.3818 28.702 29.2196C29.6619 28.1312 31.4565 28.7069 31.6126 30.1465L31.7393 31.2708C32.9846 42.672 27.0095 53.6481 16.7573 58.7991C15.7686 59.3027 14.6397 58.4613 14.8355 57.3684Z" fill="#F5851F"/>
<path d="M16.7575 58.7984C15.7749 59.2915 14.646 58.45 14.8356 57.3678C15.6593 52.878 18.1742 43.1396 25.4481 33.2741C20.1665 42.7655 18.821 54.0078 18.5062 57.8426C17.9298 58.1744 17.3534 58.5063 16.7575 58.7984Z" fill="#F89E1C"/>
<path d="M24.8831 35.2457C24.4164 34.9741 24.0806 34.8923 24.032 34.8782L23.8289 35.7397L23.9221 35.3112L23.8122 35.7441C23.8607 35.7582 29.0334 37.4335 27.0431 49.5642L28.1149 48.186C29.577 38.5733 26.4634 36.1652 24.8831 35.2457Z" fill="#F89E1C"/>
<path d="M26.4404 31.9353C26.4404 31.9353 31.5975 32.2954 31.0999 40.2262C31.0999 40.2262 32.9918 31.1191 30.6346 28.924C30.6346 28.924 29.1023 27.5071 26.4404 31.9353Z" fill="#032663"/>
<path d="M30.9177 28.7053C30.7904 28.6313 30.6676 28.574 30.5218 28.5317C29.799 28.3099 29.044 28.5095 28.5403 29.0824C18.5774 40.4215 15.4831 52.6196 14.6182 57.3267C14.5101 57.9028 14.7369 58.489 15.209 58.8489C15.681 59.2088 16.3153 59.2655 16.8441 58.9911C27.1298 53.8313 33.1931 42.6793 31.9389 31.2446L31.8122 30.1203C31.7621 29.5232 31.4268 29.0016 30.9177 28.7053ZM15.5947 58.5764C15.5522 58.5517 15.5204 58.5332 15.4842 58.4979C15.1376 58.2395 14.9764 57.8334 15.0528 57.4093C15.9161 52.7295 18.9822 40.6286 28.8683 29.3727C29.2476 28.9403 29.8243 28.7789 30.3906 28.9523C30.9402 29.1302 31.3338 29.6005 31.3963 30.1764L31.5229 31.3007C32.7558 42.5526 26.7806 53.5287 16.66 58.6C16.313 58.7815 15.9235 58.7678 15.5947 58.5764Z" fill="#10319B"/>
<path d="M28.1235 32.3611C27.222 31.8365 26.4923 31.7242 26.4755 31.7286L26.4203 32.1651C26.6164 32.194 31.3764 32.9193 31.016 40.2485L31.4603 40.2656C31.6935 35.3755 29.6614 33.256 28.1235 32.3611Z" fill="#10319B"/>
<path d="M25.1654 35.1263C24.7093 34.8609 24.3842 34.7853 24.3356 34.7712L24.2424 35.1997C24.291 35.2138 29.4588 36.5314 27.9124 48.1679L28.3488 48.223C29.5816 38.9312 26.6715 36.0027 25.1654 35.1263Z" fill="#10319B"/>
<path d="M85.0303 57.3204C84.0024 52.2336 80.6732 40.4067 70.678 29.4161C69.6995 28.3445 67.9151 28.9513 67.7839 30.3934L67.6768 31.5197C66.6292 42.9407 72.7937 53.8116 83.1336 58.7841C84.1309 59.2706 85.245 58.4097 85.0303 57.3204Z" fill="#F89E1C"/>
<path d="M83.2727 56.6922C83.2494 56.6776 83.2326 56.6734 83.2094 56.6588C79.4786 54.6425 77.4377 50.4415 78.0906 46.2594C78.3041 44.8822 78.7364 43.4874 79.5082 42.2742C82.9355 47.9598 84.1325 53.2312 84.5277 55.8034C84.6335 56.4996 83.8885 57.0223 83.2727 56.6922Z" fill="#F4B821"/>
<path d="M76.3766 54.067C70.3207 48.3517 66.9864 40.0709 67.6769 31.5197L67.763 30.4061C67.7688 30.2735 67.8083 30.1492 67.8478 30.0248L69.822 28.9733C70.1148 29.0542 70.3806 29.2089 70.6046 29.4606C71.6086 30.5742 72.5411 31.688 73.4188 32.8063C68.971 39.013 73.6914 49.2519 76.3766 54.067Z" fill="#F5851F"/>
<path d="M74.5043 35.4058C72.9192 36.3653 70.1153 39.411 71.707 48.7466L72.7278 49.8643C70.2138 37.1567 75.5984 35.8624 75.6467 35.8475L75.4665 34.9811C75.4077 35.0024 75.0292 35.0881 74.5043 35.4058Z" fill="#F89E1C"/>
<path d="M72.9869 32.093C72.9869 32.093 67.8368 32.5424 68.4717 40.4634C68.4717 40.4634 66.4223 31.3905 68.7411 29.1548C68.7411 29.1548 70.2486 27.7116 72.9869 32.093Z" fill="#032663"/>
<path d="M68.4539 28.9411C67.95 29.2461 67.6174 29.763 67.563 30.384L67.4559 31.5104C66.4 42.9651 72.6661 54.004 83.0293 58.9911C83.5732 59.25 84.1896 59.1781 84.6617 58.8206C85.1274 58.4526 85.3504 57.873 85.226 57.2884C84.2732 52.5865 80.9785 40.4374 70.8165 29.2896C70.3093 28.736 69.5446 28.5391 68.8258 28.7734C68.7017 28.8054 68.5799 28.8648 68.4539 28.9411ZM84.2923 58.5421C83.9669 58.7391 83.5881 58.7532 83.2339 58.5947C73.0269 53.6995 66.8625 42.8286 67.9001 31.557L68.0073 30.4307C68.0597 29.8539 68.4451 29.3767 68.9915 29.1894C69.538 29.0021 70.1173 29.1534 70.5209 29.5833C80.6111 40.6598 83.876 52.7122 84.8202 57.3763C84.9039 57.799 84.7498 58.2078 84.4078 58.4722C84.3658 58.4977 84.3343 58.5167 84.2923 58.5421Z" fill="#10319B"/>
<path d="M71.3111 32.5478C69.7889 33.4692 67.7939 35.6236 68.1181 40.5195L68.5621 40.4947C68.0683 33.1624 72.815 32.3547 73.017 32.3328L72.9543 31.8974C72.9311 31.8828 72.2034 32.0077 71.3111 32.5478Z" fill="#10319B"/>
<path d="M74.3165 35.2609C72.8258 36.1633 69.9669 39.1418 71.3605 48.4109L71.7959 48.3482C70.0499 36.696 75.1922 35.3333 75.2406 35.3184L75.14 34.8915C75.0916 34.9065 74.7679 34.9877 74.3165 35.2609Z" fill="#10319B"/>
</g>
</svg>
